<mxfile host="65bd71144e">
    <diagram name="Page-1" id="P7vWtTgUL3hWYsMvGvgz">
        <mxGraphModel dx="2031" dy="1239" grid="1" gridSize="10" guides="1" tooltips="1" connect="1" arrows="1" fold="1" page="0" pageScale="1" pageWidth="827" pageHeight="1169" math="0" shadow="0">
            <root>
                <mxCell id="0"/>
                <mxCell id="1" parent="0"/>
                <mxCell id="H4ysMeufxN5Wx3_AUWGg-1" value="CinemaHallSeat" style="swimlane;fontStyle=1;align=center;verticalAlign=top;childLayout=stackLayout;horizontal=1;startSize=26;horizontalStack=0;resizeParent=1;resizeParentMax=0;resizeLast=0;collapsible=1;marginBottom=0;whiteSpace=wrap;html=1;" parent="1" vertex="1">
                    <mxGeometry x="470" y="620" width="160" height="88" as="geometry"/>
                </mxCell>
                <mxCell id="H4ysMeufxN5Wx3_AUWGg-2" value="&lt;div&gt;- seatRow: string&lt;/div&gt;&lt;div&gt;- seatCol: string&lt;br&gt;- type: seatType&lt;/div&gt;" style="text;strokeColor=none;fillColor=none;align=left;verticalAlign=top;spacingLeft=4;spacingRight=4;overflow=hidden;rotatable=0;points=[[0,0.5],[1,0.5]];portConstraint=eastwest;whiteSpace=wrap;html=1;" parent="H4ysMeufxN5Wx3_AUWGg-1" vertex="1">
                    <mxGeometry y="26" width="160" height="54" as="geometry"/>
                </mxCell>
                <mxCell id="H4ysMeufxN5Wx3_AUWGg-3" value="" style="line;strokeWidth=1;fillColor=none;align=left;verticalAlign=middle;spacingTop=-1;spacingLeft=3;spacingRight=3;rotatable=0;labelPosition=right;points=[];portConstraint=eastwest;strokeColor=inherit;" parent="H4ysMeufxN5Wx3_AUWGg-1" vertex="1">
                    <mxGeometry y="80" width="160" height="8" as="geometry"/>
                </mxCell>
                <mxCell id="H4ysMeufxN5Wx3_AUWGg-5" value="ShowSeat" style="swimlane;fontStyle=1;align=center;verticalAlign=top;childLayout=stackLayout;horizontal=1;startSize=26;horizontalStack=0;resizeParent=1;resizeParentMax=0;resizeLast=0;collapsible=1;marginBottom=0;whiteSpace=wrap;html=1;" parent="1" vertex="1">
                    <mxGeometry x="470" y="467" width="160" height="88" as="geometry"/>
                </mxCell>
                <mxCell id="H4ysMeufxN5Wx3_AUWGg-6" value="&lt;div&gt;- seatNo: string&lt;/div&gt;&lt;div&gt;- status: seatStatus&lt;/div&gt;" style="text;strokeColor=none;fillColor=none;align=left;verticalAlign=top;spacingLeft=4;spacingRight=4;overflow=hidden;rotatable=0;points=[[0,0.5],[1,0.5]];portConstraint=eastwest;whiteSpace=wrap;html=1;" parent="H4ysMeufxN5Wx3_AUWGg-5" vertex="1">
                    <mxGeometry y="26" width="160" height="54" as="geometry"/>
                </mxCell>
                <mxCell id="H4ysMeufxN5Wx3_AUWGg-92" value="" style="endArrow=open;endFill=1;endSize=12;html=1;rounded=0;" parent="H4ysMeufxN5Wx3_AUWGg-5" edge="1">
                    <mxGeometry width="160" relative="1" as="geometry">
                        <mxPoint x="-80" y="52.5" as="sourcePoint"/>
                        <mxPoint y="53" as="targetPoint"/>
                    </mxGeometry>
                </mxCell>
                <mxCell id="H4ysMeufxN5Wx3_AUWGg-7" value="" style="line;strokeWidth=1;fillColor=none;align=left;verticalAlign=middle;spacingTop=-1;spacingLeft=3;spacingRight=3;rotatable=0;labelPosition=right;points=[];portConstraint=eastwest;strokeColor=inherit;" parent="H4ysMeufxN5Wx3_AUWGg-5" vertex="1">
                    <mxGeometry y="80" width="160" height="8" as="geometry"/>
                </mxCell>
                <mxCell id="H4ysMeufxN5Wx3_AUWGg-8" value="CinemaHall" style="swimlane;fontStyle=1;align=center;verticalAlign=top;childLayout=stackLayout;horizontal=1;startSize=26;horizontalStack=0;resizeParent=1;resizeParentMax=0;resizeLast=0;collapsible=1;marginBottom=0;whiteSpace=wrap;html=1;" parent="1" vertex="1">
                    <mxGeometry x="230" y="625" width="160" height="78" as="geometry"/>
                </mxCell>
                <mxCell id="H4ysMeufxN5Wx3_AUWGg-9" value="- hallId: string&lt;br&gt;- hallNo: int" style="text;strokeColor=none;fillColor=none;align=left;verticalAlign=top;spacingLeft=4;spacingRight=4;overflow=hidden;rotatable=0;points=[[0,0.5],[1,0.5]];portConstraint=eastwest;whiteSpace=wrap;html=1;" parent="H4ysMeufxN5Wx3_AUWGg-8" vertex="1">
                    <mxGeometry y="26" width="160" height="44" as="geometry"/>
                </mxCell>
                <mxCell id="H4ysMeufxN5Wx3_AUWGg-10" value="" style="line;strokeWidth=1;fillColor=none;align=left;verticalAlign=middle;spacingTop=-1;spacingLeft=3;spacingRight=3;rotatable=0;labelPosition=right;points=[];portConstraint=eastwest;strokeColor=inherit;" parent="H4ysMeufxN5Wx3_AUWGg-8" vertex="1">
                    <mxGeometry y="70" width="160" height="8" as="geometry"/>
                </mxCell>
                <mxCell id="H4ysMeufxN5Wx3_AUWGg-12" value="CinemaTheatre" style="swimlane;fontStyle=1;align=center;verticalAlign=top;childLayout=stackLayout;horizontal=1;startSize=26;horizontalStack=0;resizeParent=1;resizeParentMax=0;resizeLast=0;collapsible=1;marginBottom=0;whiteSpace=wrap;html=1;" parent="1" vertex="1">
                    <mxGeometry x="10" y="625" width="160" height="78" as="geometry"/>
                </mxCell>
                <mxCell id="H4ysMeufxN5Wx3_AUWGg-13" value="- theatreId: string&lt;br&gt;- name: string" style="text;strokeColor=none;fillColor=none;align=left;verticalAlign=top;spacingLeft=4;spacingRight=4;overflow=hidden;rotatable=0;points=[[0,0.5],[1,0.5]];portConstraint=eastwest;whiteSpace=wrap;html=1;" parent="H4ysMeufxN5Wx3_AUWGg-12" vertex="1">
                    <mxGeometry y="26" width="160" height="44" as="geometry"/>
                </mxCell>
                <mxCell id="H4ysMeufxN5Wx3_AUWGg-14" value="" style="line;strokeWidth=1;fillColor=none;align=left;verticalAlign=middle;spacingTop=-1;spacingLeft=3;spacingRight=3;rotatable=0;labelPosition=right;points=[];portConstraint=eastwest;strokeColor=inherit;" parent="H4ysMeufxN5Wx3_AUWGg-12" vertex="1">
                    <mxGeometry y="70" width="160" height="8" as="geometry"/>
                </mxCell>
                <mxCell id="H4ysMeufxN5Wx3_AUWGg-16" value="City" style="swimlane;fontStyle=1;align=center;verticalAlign=top;childLayout=stackLayout;horizontal=1;startSize=26;horizontalStack=0;resizeParent=1;resizeParentMax=0;resizeLast=0;collapsible=1;marginBottom=0;whiteSpace=wrap;html=1;" parent="1" vertex="1">
                    <mxGeometry x="-240" y="634" width="160" height="60" as="geometry"/>
                </mxCell>
                <mxCell id="H4ysMeufxN5Wx3_AUWGg-17" value="- name: string" style="text;strokeColor=none;fillColor=none;align=left;verticalAlign=top;spacingLeft=4;spacingRight=4;overflow=hidden;rotatable=0;points=[[0,0.5],[1,0.5]];portConstraint=eastwest;whiteSpace=wrap;html=1;" parent="H4ysMeufxN5Wx3_AUWGg-16" vertex="1">
                    <mxGeometry y="26" width="160" height="26" as="geometry"/>
                </mxCell>
                <mxCell id="H4ysMeufxN5Wx3_AUWGg-18" value="" style="line;strokeWidth=1;fillColor=none;align=left;verticalAlign=middle;spacingTop=-1;spacingLeft=3;spacingRight=3;rotatable=0;labelPosition=right;points=[];portConstraint=eastwest;strokeColor=inherit;" parent="H4ysMeufxN5Wx3_AUWGg-16" vertex="1">
                    <mxGeometry y="52" width="160" height="8" as="geometry"/>
                </mxCell>
                <mxCell id="H4ysMeufxN5Wx3_AUWGg-37" value="&lt;p style=&quot;margin:0px;margin-top:4px;text-align:center;&quot;&gt;&lt;b&gt;SearchMovie&lt;br&gt;&amp;lt;&amp;lt;interface&amp;gt;&amp;gt;&lt;/b&gt;&lt;/p&gt;&lt;hr size=&quot;1&quot; style=&quot;border-style:solid;&quot;&gt;&lt;p style=&quot;margin:0px;margin-left:4px;&quot;&gt;&lt;br&gt;&lt;/p&gt;&lt;hr size=&quot;1&quot; style=&quot;border-style:solid;&quot;&gt;&lt;p style=&quot;margin:0px;margin-left:4px;&quot;&gt;+ searchByTtitle(): Movie{list}&lt;/p&gt;&lt;p style=&quot;margin:0px;margin-left:4px;&quot;&gt;+ searchByGenre():&amp;nbsp;&lt;span style=&quot;background-color: initial;&quot;&gt;Movie{list}&lt;/span&gt;&lt;br&gt;&lt;/p&gt;&lt;p style=&quot;margin:0px;margin-left:4px;&quot;&gt;+ searchByLanguage():&amp;nbsp;&lt;span style=&quot;background-color: initial;&quot;&gt;Movie{list}&lt;/span&gt;&lt;br&gt;&lt;/p&gt;&lt;p style=&quot;margin:0px;margin-left:4px;&quot;&gt;+ searchByReleaseDate():&amp;nbsp;&lt;span style=&quot;background-color: initial;&quot;&gt;Movie{list}&lt;/span&gt;&lt;br&gt;&lt;/p&gt;" style="verticalAlign=top;align=left;overflow=fill;html=1;whiteSpace=wrap;" parent="1" vertex="1">
                    <mxGeometry x="-100" y="398" width="210" height="140" as="geometry"/>
                </mxCell>
                <mxCell id="H4ysMeufxN5Wx3_AUWGg-38" value="&lt;p style=&quot;margin:0px;margin-top:4px;text-align:center;&quot;&gt;&lt;b&gt;MovieCatalog&lt;/b&gt;&lt;/p&gt;&lt;hr size=&quot;1&quot; style=&quot;border-style:solid;&quot;&gt;&lt;p style=&quot;margin:0px;margin-left:4px;&quot;&gt;- movieTitle: map&amp;lt;string, Movie{list}&lt;br&gt;- movieGenre: map&amp;lt;string, Movie{list}&lt;br&gt;- movieLanguage map&amp;lt;string, Movie{list}&lt;br&gt;- movieReleaseDate: map&amp;lt;string, Movie{list}&lt;br&gt;&lt;/p&gt;&lt;hr size=&quot;1&quot; style=&quot;border-style:solid;&quot;&gt;&lt;p style=&quot;margin:0px;margin-left:4px;&quot;&gt;&lt;br&gt;&lt;/p&gt;" style="verticalAlign=top;align=left;overflow=fill;html=1;whiteSpace=wrap;" parent="1" vertex="1">
                    <mxGeometry x="-170" y="248" width="270" height="110" as="geometry"/>
                </mxCell>
                <mxCell id="H4ysMeufxN5Wx3_AUWGg-39" value="&lt;p style=&quot;margin:0px;margin-top:4px;text-align:center;&quot;&gt;&lt;b&gt;Payment&lt;/b&gt;&lt;/p&gt;&lt;hr size=&quot;1&quot; style=&quot;border-style:solid;&quot;&gt;&lt;p style=&quot;margin:0px;margin-left:4px;&quot;&gt;- amount: double&lt;br&gt;- status: PaymentStatus&lt;br&gt;- timeStamp: date/time&lt;/p&gt;&lt;hr size=&quot;1&quot; style=&quot;border-style:solid;&quot;&gt;&lt;p style=&quot;margin:0px;margin-left:4px;&quot;&gt;+ processPayment(): bool&lt;/p&gt;" style="verticalAlign=top;align=left;overflow=fill;html=1;whiteSpace=wrap;" parent="1" vertex="1">
                    <mxGeometry x="700" y="274" width="160" height="118" as="geometry"/>
                </mxCell>
                <mxCell id="H4ysMeufxN5Wx3_AUWGg-40" value="&lt;p style=&quot;margin:0px;margin-top:4px;text-align:center;&quot;&gt;&lt;b&gt;CardPayment&lt;/b&gt;&lt;/p&gt;&lt;hr size=&quot;1&quot; style=&quot;border-style:solid;&quot;&gt;&lt;p style=&quot;margin:0px;margin-left:4px;&quot;&gt;- nameOnCard: string&lt;br&gt;- cardNo: string&lt;br&gt;- code: int&lt;br&gt;- billingAddress: string&lt;/p&gt;&lt;hr size=&quot;1&quot; style=&quot;border-style:solid;&quot;&gt;&lt;p style=&quot;margin:0px;margin-left:4px;&quot;&gt;+ processPayment(): bool&lt;br&gt;&lt;/p&gt;" style="verticalAlign=top;align=left;overflow=fill;html=1;whiteSpace=wrap;" parent="1" vertex="1">
                    <mxGeometry x="1020" y="377" width="160" height="123" as="geometry"/>
                </mxCell>
                <mxCell id="H4ysMeufxN5Wx3_AUWGg-41" value="&lt;p style=&quot;margin:0px;margin-top:4px;text-align:center;&quot;&gt;&lt;b&gt;CashPayment&lt;/b&gt;&lt;/p&gt;&lt;hr size=&quot;1&quot; style=&quot;border-style:solid;&quot;&gt;&lt;p style=&quot;margin:0px;margin-left:4px;&quot;&gt;&lt;br&gt;&lt;/p&gt;&lt;hr size=&quot;1&quot; style=&quot;border-style:solid;&quot;&gt;&lt;p style=&quot;margin:0px;margin-left:4px;&quot;&gt;+ processPayment(): bool&lt;br&gt;&lt;/p&gt;" style="verticalAlign=top;align=left;overflow=fill;html=1;whiteSpace=wrap;" parent="1" vertex="1">
                    <mxGeometry x="1020" y="220" width="160" height="90" as="geometry"/>
                </mxCell>
                <mxCell id="H4ysMeufxN5Wx3_AUWGg-42" value="&lt;p style=&quot;margin:0px;margin-top:4px;text-align:center;&quot;&gt;&lt;b&gt;Person&lt;/b&gt;&lt;/p&gt;&lt;hr size=&quot;1&quot; style=&quot;border-style:solid;&quot;&gt;&lt;p style=&quot;margin:0px;margin-left:4px;&quot;&gt;= name: string&lt;br&gt;- email: string&lt;br&gt;- phoneNo: string&lt;br&gt;- address: string&lt;/p&gt;&lt;hr size=&quot;1&quot; style=&quot;border-style:solid;&quot;&gt;&lt;p style=&quot;margin:0px;margin-left:4px;&quot;&gt;&lt;br&gt;&lt;/p&gt;" style="verticalAlign=top;align=left;overflow=fill;html=1;whiteSpace=wrap;" parent="1" vertex="1">
                    <mxGeometry x="90" y="-100" width="160" height="100" as="geometry"/>
                </mxCell>
                <mxCell id="H4ysMeufxN5Wx3_AUWGg-43" value="&lt;p style=&quot;margin:0px;margin-top:4px;text-align:center;&quot;&gt;&lt;b&gt;Admin&lt;/b&gt;&lt;/p&gt;&lt;hr size=&quot;1&quot; style=&quot;border-style:solid;&quot;&gt;&lt;p style=&quot;margin:0px;margin-left:4px;&quot;&gt;+ field: Type&lt;/p&gt;&lt;hr size=&quot;1&quot; style=&quot;border-style:solid;&quot;&gt;&lt;p style=&quot;margin:0px;margin-left:4px;&quot;&gt;+ addShow(show):void&lt;/p&gt;&lt;p style=&quot;margin:0px;margin-left:4px;&quot;&gt;+ updateShow(show): void&lt;br&gt;+ removeShow(show): void&lt;br&gt;+ adddMovie(movie): void&lt;br&gt;+ removeMovie(show): void&lt;/p&gt;" style="verticalAlign=top;align=left;overflow=fill;html=1;whiteSpace=wrap;" parent="1" vertex="1">
                    <mxGeometry x="40" y="80" width="160" height="140" as="geometry"/>
                </mxCell>
                <mxCell id="H4ysMeufxN5Wx3_AUWGg-44" value="&lt;p style=&quot;margin:0px;margin-top:4px;text-align:center;&quot;&gt;&lt;b&gt;Customer&lt;/b&gt;&lt;/p&gt;&lt;hr size=&quot;1&quot; style=&quot;border-style:solid;&quot;&gt;&lt;p style=&quot;margin:0px;margin-left:4px;&quot;&gt;- bookings: Booking{list}&lt;/p&gt;&lt;hr size=&quot;1&quot; style=&quot;border-style:solid;&quot;&gt;&lt;p style=&quot;margin:0px;margin-left:4px;&quot;&gt;+ createBooking(): void&lt;br&gt;+ updateBooking(): void&lt;br&gt;+ cancelBooking(): void&lt;/p&gt;" style="verticalAlign=top;align=left;overflow=fill;html=1;whiteSpace=wrap;" parent="1" vertex="1">
                    <mxGeometry x="270" y="80" width="160" height="110" as="geometry"/>
                </mxCell>
                <mxCell id="H4ysMeufxN5Wx3_AUWGg-45" value="&lt;p style=&quot;margin:0px;margin-top:4px;text-align:center;&quot;&gt;&lt;b&gt;TicketAgent&lt;/b&gt;&lt;/p&gt;&lt;hr size=&quot;1&quot; style=&quot;border-style:solid;&quot;&gt;&lt;p style=&quot;margin:0px;margin-left:4px;&quot;&gt;&lt;br&gt;&lt;/p&gt;&lt;hr size=&quot;1&quot; style=&quot;border-style:solid;&quot;&gt;&lt;p style=&quot;margin:0px;margin-left:4px;&quot;&gt;+ createBooking(): void&lt;br&gt;&lt;/p&gt;" style="verticalAlign=top;align=left;overflow=fill;html=1;whiteSpace=wrap;" parent="1" vertex="1">
                    <mxGeometry x="370" y="-58" width="160" height="90" as="geometry"/>
                </mxCell>
                <mxCell id="H4ysMeufxN5Wx3_AUWGg-46" value="&lt;p style=&quot;margin:0px;margin-top:4px;text-align:center;&quot;&gt;&lt;b&gt;Notification&lt;/b&gt;&lt;/p&gt;&lt;hr size=&quot;1&quot; style=&quot;border-style:solid;&quot;&gt;&lt;p style=&quot;margin:0px;margin-left:4px;&quot;&gt;- notiifcationId: string&lt;br&gt;- message: string&lt;br&gt;- createdOn: date/time&lt;/p&gt;&lt;hr size=&quot;1&quot; style=&quot;border-style:solid;&quot;&gt;&lt;p style=&quot;margin:0px;margin-left:4px;&quot;&gt;+ sendNotification(): void&lt;/p&gt;" style="verticalAlign=top;align=left;overflow=fill;html=1;whiteSpace=wrap;" parent="1" vertex="1">
                    <mxGeometry x="680" y="-48" width="160" height="110" as="geometry"/>
                </mxCell>
                <mxCell id="H4ysMeufxN5Wx3_AUWGg-47" value="&lt;p style=&quot;margin:0px;margin-top:4px;text-align:center;&quot;&gt;&lt;b&gt;EmailNotification&lt;/b&gt;&lt;/p&gt;&lt;hr size=&quot;1&quot; style=&quot;border-style:solid;&quot;&gt;&lt;p style=&quot;margin:0px;margin-left:4px;&quot;&gt;&lt;br&gt;&lt;/p&gt;&lt;hr size=&quot;1&quot; style=&quot;border-style:solid;&quot;&gt;&lt;p style=&quot;margin:0px;margin-left:4px;&quot;&gt;+ sendNotification(): void&lt;/p&gt;" style="verticalAlign=top;align=left;overflow=fill;html=1;whiteSpace=wrap;" parent="1" vertex="1">
                    <mxGeometry x="1002" y="-90" width="160" height="90" as="geometry"/>
                </mxCell>
                <mxCell id="H4ysMeufxN5Wx3_AUWGg-48" value="&lt;p style=&quot;margin:0px;margin-top:4px;text-align:center;&quot;&gt;&lt;b&gt;SmsNotification&lt;/b&gt;&lt;/p&gt;&lt;hr size=&quot;1&quot; style=&quot;border-style:solid;&quot;&gt;&lt;p style=&quot;margin:0px;margin-left:4px;&quot;&gt;&lt;br&gt;&lt;/p&gt;&lt;hr size=&quot;1&quot; style=&quot;border-style:solid;&quot;&gt;&lt;p style=&quot;margin:0px;margin-left:4px;&quot;&gt;+ sendNotification(): void&lt;/p&gt;" style="verticalAlign=top;align=left;overflow=fill;html=1;whiteSpace=wrap;" parent="1" vertex="1">
                    <mxGeometry x="1002" y="60" width="160" height="90" as="geometry"/>
                </mxCell>
                <mxCell id="H4ysMeufxN5Wx3_AUWGg-49" value="" style="endArrow=diamondThin;endFill=1;endSize=24;html=1;rounded=0;entryX=1;entryY=0.5;entryDx=0;entryDy=0;exitX=0;exitY=0.5;exitDx=0;exitDy=0;" parent="1" source="H4ysMeufxN5Wx3_AUWGg-9" target="H4ysMeufxN5Wx3_AUWGg-13" edge="1">
                    <mxGeometry width="160" relative="1" as="geometry">
                        <mxPoint x="254" y="760" as="sourcePoint"/>
                        <mxPoint x="414" y="760" as="targetPoint"/>
                    </mxGeometry>
                </mxCell>
                <mxCell id="H4ysMeufxN5Wx3_AUWGg-50" value="" style="endArrow=diamondThin;endFill=1;endSize=24;html=1;rounded=0;entryX=1;entryY=0.5;entryDx=0;entryDy=0;exitX=0;exitY=0.63;exitDx=0;exitDy=0;exitPerimeter=0;" parent="1" source="H4ysMeufxN5Wx3_AUWGg-2" edge="1">
                    <mxGeometry width="160" relative="1" as="geometry">
                        <mxPoint x="450" y="680" as="sourcePoint"/>
                        <mxPoint x="390" y="680" as="targetPoint"/>
                        <Array as="points">
                            <mxPoint x="430" y="680"/>
                        </Array>
                    </mxGeometry>
                </mxCell>
                <mxCell id="H4ysMeufxN5Wx3_AUWGg-57" value="&lt;p style=&quot;margin:0px;margin-top:4px;text-align:center;&quot;&gt;&lt;b&gt;Show&lt;/b&gt;&lt;/p&gt;&lt;hr size=&quot;1&quot; style=&quot;border-style:solid;&quot;&gt;&lt;div&gt;- showId: string&lt;/div&gt;&lt;div&gt;- startTime: data/time&lt;br&gt;- endTime: date/time&lt;br&gt;- hall: CinemaHall&lt;br&gt;- theatre: CinemaTheatre&lt;br&gt;- seats; ShowSeats&amp;lt;List&amp;gt;&lt;/div&gt;&lt;hr size=&quot;1&quot; style=&quot;border-style:solid;&quot;&gt;&lt;p style=&quot;margin:0px;margin-left:4px;&quot;&gt;+ getFreeSeats(): Type&lt;/p&gt;" style="verticalAlign=top;align=left;overflow=fill;html=1;whiteSpace=wrap;" parent="1" vertex="1">
                    <mxGeometry x="230" y="420" width="160" height="150" as="geometry"/>
                </mxCell>
                <mxCell id="H4ysMeufxN5Wx3_AUWGg-59" value="" style="endArrow=open;endFill=1;endSize=12;html=1;rounded=0;exitX=0.5;exitY=1;exitDx=0;exitDy=0;" parent="1" source="H4ysMeufxN5Wx3_AUWGg-57" edge="1">
                    <mxGeometry width="160" relative="1" as="geometry">
                        <mxPoint x="309.5" y="575" as="sourcePoint"/>
                        <mxPoint x="310" y="625" as="targetPoint"/>
                    </mxGeometry>
                </mxCell>
                <mxCell id="H4ysMeufxN5Wx3_AUWGg-60" value="" style="endArrow=open;endFill=1;endSize=12;html=1;rounded=0;exitX=-0.019;exitY=0.947;exitDx=0;exitDy=0;exitPerimeter=0;" parent="1" source="H4ysMeufxN5Wx3_AUWGg-57" edge="1">
                    <mxGeometry width="160" relative="1" as="geometry">
                        <mxPoint x="100" y="570" as="sourcePoint"/>
                        <mxPoint x="100" y="625" as="targetPoint"/>
                        <Array as="points">
                            <mxPoint x="100" y="562"/>
                        </Array>
                    </mxGeometry>
                </mxCell>
                <mxCell id="H4ysMeufxN5Wx3_AUWGg-61" value="Extends" style="endArrow=block;endSize=16;endFill=0;html=1;rounded=0;exitX=0.5;exitY=1;exitDx=0;exitDy=0;" parent="1" source="H4ysMeufxN5Wx3_AUWGg-5" target="H4ysMeufxN5Wx3_AUWGg-1" edge="1">
                    <mxGeometry width="160" relative="1" as="geometry">
                        <mxPoint x="550" y="570" as="sourcePoint"/>
                        <mxPoint x="710" y="570" as="targetPoint"/>
                    </mxGeometry>
                </mxCell>
                <mxCell id="H4ysMeufxN5Wx3_AUWGg-62" value="&lt;p style=&quot;margin:0px;margin-top:4px;text-align:center;&quot;&gt;&lt;b&gt;Movie&lt;/b&gt;&lt;/p&gt;&lt;hr size=&quot;1&quot; style=&quot;border-style:solid;&quot;&gt;&lt;p style=&quot;margin:0px;margin-left:4px;&quot;&gt;- title: string&lt;br&gt;- genre: string&lt;br&gt;- langugage: string&lt;br&gt;- releasedDate: string&lt;br&gt;- shows: Show{list}&lt;/p&gt;&lt;hr size=&quot;1&quot; style=&quot;border-style:solid;&quot;&gt;&lt;p style=&quot;margin:0px;margin-left:4px;&quot;&gt;+ getAvailableShows(): Show{list}&lt;/p&gt;" style="verticalAlign=top;align=left;overflow=fill;html=1;whiteSpace=wrap;" parent="1" vertex="1">
                    <mxGeometry x="210" y="248" width="190" height="150" as="geometry"/>
                </mxCell>
                <mxCell id="H4ysMeufxN5Wx3_AUWGg-63" value="" style="endArrow=diamondThin;endFill=0;endSize=24;html=1;rounded=0;entryX=1;entryY=0.5;entryDx=0;entryDy=0;" parent="1" target="H4ysMeufxN5Wx3_AUWGg-38" edge="1">
                    <mxGeometry width="160" relative="1" as="geometry">
                        <mxPoint x="210" y="303" as="sourcePoint"/>
                        <mxPoint x="160" y="302.5" as="targetPoint"/>
                    </mxGeometry>
                </mxCell>
                <mxCell id="H4ysMeufxN5Wx3_AUWGg-64" value="" style="endArrow=block;dashed=1;endFill=0;endSize=12;html=1;rounded=0;entryX=0.458;entryY=0.014;entryDx=0;entryDy=0;entryPerimeter=0;exitX=0.622;exitY=1.009;exitDx=0;exitDy=0;exitPerimeter=0;" parent="1" source="H4ysMeufxN5Wx3_AUWGg-38" target="H4ysMeufxN5Wx3_AUWGg-37" edge="1">
                    <mxGeometry width="160" relative="1" as="geometry">
                        <mxPoint x="-10" y="378" as="sourcePoint"/>
                        <mxPoint x="150" y="378" as="targetPoint"/>
                    </mxGeometry>
                </mxCell>
                <mxCell id="H4ysMeufxN5Wx3_AUWGg-65" value="" style="endArrow=open;endFill=1;endSize=12;html=1;rounded=0;exitX=0.5;exitY=1;exitDx=0;exitDy=0;" parent="1" edge="1">
                    <mxGeometry width="160" relative="1" as="geometry">
                        <mxPoint x="309.5" y="398" as="sourcePoint"/>
                        <mxPoint x="310" y="420" as="targetPoint"/>
                    </mxGeometry>
                </mxCell>
                <mxCell id="H4ysMeufxN5Wx3_AUWGg-66" value="&lt;p style=&quot;margin:0px;margin-top:4px;text-align:center;&quot;&gt;&lt;b&gt;Booking&lt;/b&gt;&lt;/p&gt;&lt;hr size=&quot;1&quot; style=&quot;border-style:solid;&quot;&gt;&lt;p style=&quot;margin:0px;margin-left:4px;&quot;&gt;- bookingId: int&lt;br&gt;- amount: int&lt;br&gt;- createdOn: date/time&lt;br&gt;- status: BookingStatus&lt;br&gt;- payment: Payment&lt;br&gt;- show: Show&lt;br&gt;- seats: ShowSeat{list}&lt;br&gt;- releasedDate: string&lt;br&gt;&lt;/p&gt;&lt;p style=&quot;margin:0px;margin-left:4px;&quot;&gt;&lt;br&gt;&lt;/p&gt;" style="verticalAlign=top;align=left;overflow=fill;html=1;whiteSpace=wrap;" parent="1" vertex="1">
                    <mxGeometry x="480" y="250" width="160" height="158" as="geometry"/>
                </mxCell>
                <mxCell id="H4ysMeufxN5Wx3_AUWGg-67" value="" style="line;strokeWidth=1;fillColor=none;align=left;verticalAlign=middle;spacingTop=-1;spacingLeft=3;spacingRight=3;rotatable=0;labelPosition=right;points=[];portConstraint=eastwest;strokeColor=inherit;" parent="1" vertex="1">
                    <mxGeometry x="640" y="329" width="60" height="8" as="geometry"/>
                </mxCell>
                <mxCell id="H4ysMeufxN5Wx3_AUWGg-68" value="" style="line;strokeWidth=1;fillColor=none;align=left;verticalAlign=middle;spacingTop=-1;spacingLeft=3;spacingRight=3;rotatable=0;labelPosition=right;points=[];portConstraint=eastwest;strokeColor=inherit;direction=south;" parent="1" vertex="1">
                    <mxGeometry x="960" y="260" width="40" height="158" as="geometry"/>
                </mxCell>
                <mxCell id="H4ysMeufxN5Wx3_AUWGg-69" value="" style="line;strokeWidth=1;fillColor=none;align=left;verticalAlign=middle;spacingTop=-1;spacingLeft=3;spacingRight=3;rotatable=0;labelPosition=right;points=[];portConstraint=eastwest;strokeColor=inherit;" parent="1" vertex="1">
                    <mxGeometry x="980" y="412" width="40" height="8" as="geometry"/>
                </mxCell>
                <mxCell id="H4ysMeufxN5Wx3_AUWGg-70" value="" style="line;strokeWidth=1;fillColor=none;align=left;verticalAlign=middle;spacingTop=-1;spacingLeft=3;spacingRight=3;rotatable=0;labelPosition=right;points=[];portConstraint=eastwest;strokeColor=inherit;" parent="1" vertex="1">
                    <mxGeometry x="980" y="258" width="40" height="8" as="geometry"/>
                </mxCell>
                <mxCell id="H4ysMeufxN5Wx3_AUWGg-71" value="Extends" style="endArrow=block;endSize=16;endFill=0;html=1;rounded=0;entryX=0.988;entryY=0.6;entryDx=0;entryDy=0;entryPerimeter=0;exitX=0.513;exitY=0.475;exitDx=0;exitDy=0;exitPerimeter=0;" parent="1" source="H4ysMeufxN5Wx3_AUWGg-68" target="H4ysMeufxN5Wx3_AUWGg-39" edge="1">
                    <mxGeometry width="160" relative="1" as="geometry">
                        <mxPoint x="760" y="440" as="sourcePoint"/>
                        <mxPoint x="920" y="440" as="targetPoint"/>
                    </mxGeometry>
                </mxCell>
                <mxCell id="H4ysMeufxN5Wx3_AUWGg-73" value="" style="line;strokeWidth=1;fillColor=none;align=left;verticalAlign=middle;spacingTop=-1;spacingLeft=3;spacingRight=3;rotatable=0;labelPosition=right;points=[];portConstraint=eastwest;strokeColor=inherit;direction=south;" parent="1" vertex="1">
                    <mxGeometry x="942" y="-58" width="40" height="158" as="geometry"/>
                </mxCell>
                <mxCell id="H4ysMeufxN5Wx3_AUWGg-74" value="" style="line;strokeWidth=1;fillColor=none;align=left;verticalAlign=middle;spacingTop=-1;spacingLeft=3;spacingRight=3;rotatable=0;labelPosition=right;points=[];portConstraint=eastwest;strokeColor=inherit;" parent="1" vertex="1">
                    <mxGeometry x="962" y="94" width="40" height="8" as="geometry"/>
                </mxCell>
                <mxCell id="H4ysMeufxN5Wx3_AUWGg-75" value="" style="line;strokeWidth=1;fillColor=none;align=left;verticalAlign=middle;spacingTop=-1;spacingLeft=3;spacingRight=3;rotatable=0;labelPosition=right;points=[];portConstraint=eastwest;strokeColor=inherit;" parent="1" vertex="1">
                    <mxGeometry x="962" y="-60" width="40" height="8" as="geometry"/>
                </mxCell>
                <mxCell id="H4ysMeufxN5Wx3_AUWGg-76" value="Extends" style="endArrow=block;endSize=16;endFill=0;html=1;rounded=0;entryX=0.988;entryY=0.6;entryDx=0;entryDy=0;entryPerimeter=0;exitX=0.513;exitY=0.475;exitDx=0;exitDy=0;exitPerimeter=0;" parent="1" source="H4ysMeufxN5Wx3_AUWGg-73" edge="1">
                    <mxGeometry width="160" relative="1" as="geometry">
                        <mxPoint x="742" y="122" as="sourcePoint"/>
                        <mxPoint x="840" y="24" as="targetPoint"/>
                    </mxGeometry>
                </mxCell>
                <mxCell id="H4ysMeufxN5Wx3_AUWGg-77" value="" style="line;strokeWidth=1;fillColor=none;align=left;verticalAlign=middle;spacingTop=-1;spacingLeft=3;spacingRight=3;rotatable=0;labelPosition=right;points=[];portConstraint=eastwest;strokeColor=inherit;" parent="1" vertex="1">
                    <mxGeometry x="150" y="42" width="200" height="8" as="geometry"/>
                </mxCell>
                <mxCell id="H4ysMeufxN5Wx3_AUWGg-79" value="" style="line;strokeWidth=1;fillColor=none;align=left;verticalAlign=middle;spacingTop=-1;spacingLeft=3;spacingRight=3;rotatable=0;labelPosition=right;points=[];portConstraint=eastwest;strokeColor=inherit;direction=south;" parent="1" vertex="1">
                    <mxGeometry x="130" y="44" width="40" height="36" as="geometry"/>
                </mxCell>
                <mxCell id="H4ysMeufxN5Wx3_AUWGg-80" value="" style="line;strokeWidth=1;fillColor=none;align=left;verticalAlign=middle;spacingTop=-1;spacingLeft=3;spacingRight=3;rotatable=0;labelPosition=right;points=[];portConstraint=eastwest;strokeColor=inherit;direction=south;" parent="1" vertex="1">
                    <mxGeometry x="330" y="44" width="40" height="36" as="geometry"/>
                </mxCell>
                <mxCell id="H4ysMeufxN5Wx3_AUWGg-82" value="Extends" style="endArrow=block;endSize=16;endFill=0;html=1;rounded=0;entryX=1;entryY=0.5;entryDx=0;entryDy=0;exitX=-0.006;exitY=0.333;exitDx=0;exitDy=0;exitPerimeter=0;" parent="1" source="H4ysMeufxN5Wx3_AUWGg-45" edge="1">
                    <mxGeometry width="160" relative="1" as="geometry">
                        <mxPoint x="370" y="-5.5" as="sourcePoint"/>
                        <mxPoint x="250" y="-30" as="targetPoint"/>
                    </mxGeometry>
                </mxCell>
                <mxCell id="H4ysMeufxN5Wx3_AUWGg-83" value="Extends" style="endArrow=block;endSize=16;endFill=0;html=1;rounded=0;entryX=1;entryY=0.5;entryDx=0;entryDy=0;" parent="1" edge="1">
                    <mxGeometry width="160" relative="1" as="geometry">
                        <mxPoint x="210" y="40" as="sourcePoint"/>
                        <mxPoint x="210" as="targetPoint"/>
                    </mxGeometry>
                </mxCell>
                <mxCell id="H4ysMeufxN5Wx3_AUWGg-84" value="" style="line;strokeWidth=1;fillColor=none;align=left;verticalAlign=middle;spacingTop=-1;spacingLeft=3;spacingRight=3;rotatable=0;labelPosition=right;points=[];portConstraint=eastwest;strokeColor=inherit;" parent="1" vertex="1">
                    <mxGeometry x="530" width="150" height="8" as="geometry"/>
                </mxCell>
                <mxCell id="H4ysMeufxN5Wx3_AUWGg-85" value="" style="line;strokeWidth=1;fillColor=none;align=left;verticalAlign=middle;spacingTop=-1;spacingLeft=3;spacingRight=3;rotatable=0;labelPosition=right;points=[];portConstraint=eastwest;strokeColor=inherit;" parent="1" vertex="1">
                    <mxGeometry x="430" y="142" width="280" height="8" as="geometry"/>
                </mxCell>
                <mxCell id="H4ysMeufxN5Wx3_AUWGg-86" value="" style="line;strokeWidth=1;fillColor=none;align=left;verticalAlign=middle;spacingTop=-1;spacingLeft=3;spacingRight=3;rotatable=0;labelPosition=right;points=[];portConstraint=eastwest;strokeColor=inherit;direction=south;" parent="1" vertex="1">
                    <mxGeometry x="690" y="62" width="40" height="86" as="geometry"/>
                </mxCell>
                <mxCell id="H4ysMeufxN5Wx3_AUWGg-87" value="" style="endArrow=open;endFill=1;endSize=12;html=1;rounded=0;entryX=0.119;entryY=-0.007;entryDx=0;entryDy=0;entryPerimeter=0;" parent="1" target="H4ysMeufxN5Wx3_AUWGg-66" edge="1">
                    <mxGeometry width="160" relative="1" as="geometry">
                        <mxPoint x="500" y="34" as="sourcePoint"/>
                        <mxPoint x="590" y="130" as="targetPoint"/>
                    </mxGeometry>
                </mxCell>
                <mxCell id="H4ysMeufxN5Wx3_AUWGg-88" value="" style="endArrow=open;endFill=1;endSize=12;html=1;rounded=0;entryX=-0.012;entryY=0.297;entryDx=0;entryDy=0;entryPerimeter=0;" parent="1" target="H4ysMeufxN5Wx3_AUWGg-66" edge="1">
                    <mxGeometry width="160" relative="1" as="geometry">
                        <mxPoint x="413" y="191" as="sourcePoint"/>
                        <mxPoint x="470" y="300" as="targetPoint"/>
                        <Array as="points">
                            <mxPoint x="413" y="296"/>
                        </Array>
                    </mxGeometry>
                </mxCell>
                <mxCell id="H4ysMeufxN5Wx3_AUWGg-89" value="" style="endArrow=open;endFill=1;endSize=12;html=1;rounded=0;entryX=0.5;entryY=0;entryDx=0;entryDy=0;" parent="1" target="H4ysMeufxN5Wx3_AUWGg-5" edge="1">
                    <mxGeometry width="160" relative="1" as="geometry">
                        <mxPoint x="550" y="409" as="sourcePoint"/>
                        <mxPoint x="590" y="430" as="targetPoint"/>
                    </mxGeometry>
                </mxCell>
                <mxCell id="H4ysMeufxN5Wx3_AUWGg-90" value="" style="endArrow=open;endFill=1;endSize=12;html=1;rounded=0;entryX=1;entryY=0.25;entryDx=0;entryDy=0;exitX=0.019;exitY=0.853;exitDx=0;exitDy=0;exitPerimeter=0;" parent="1" source="H4ysMeufxN5Wx3_AUWGg-66" target="H4ysMeufxN5Wx3_AUWGg-57" edge="1">
                    <mxGeometry width="160" relative="1" as="geometry">
                        <mxPoint x="420" y="393" as="sourcePoint"/>
                        <mxPoint x="420" y="451" as="targetPoint"/>
                        <Array as="points">
                            <mxPoint x="420" y="386"/>
                            <mxPoint x="420" y="458"/>
                        </Array>
                    </mxGeometry>
                </mxCell>
                <mxCell id="H4ysMeufxN5Wx3_AUWGg-93" value="" style="endArrow=open;endFill=1;endSize=12;html=1;rounded=0;entryX=0.295;entryY=-0.02;entryDx=0;entryDy=0;entryPerimeter=0;" parent="1" target="H4ysMeufxN5Wx3_AUWGg-62" edge="1">
                    <mxGeometry width="160" relative="1" as="geometry">
                        <mxPoint x="200" y="210" as="sourcePoint"/>
                        <mxPoint x="360" y="210" as="targetPoint"/>
                        <Array as="points">
                            <mxPoint x="266" y="210"/>
                        </Array>
                    </mxGeometry>
                </mxCell>
                <mxCell id="H4ysMeufxN5Wx3_AUWGg-94" value="" style="endArrow=open;endFill=1;endSize=12;html=1;rounded=0;entryX=-0.011;entryY=0.887;entryDx=0;entryDy=0;entryPerimeter=0;exitX=0.819;exitY=1;exitDx=0;exitDy=0;exitPerimeter=0;" parent="1" target="H4ysMeufxN5Wx3_AUWGg-62" edge="1">
                    <mxGeometry width="160" relative="1" as="geometry">
                        <mxPoint x="163.12999999999997" y="220" as="sourcePoint"/>
                        <mxPoint x="199.99999999999986" y="378.0500000000002" as="targetPoint"/>
                        <Array as="points">
                            <mxPoint x="162.09" y="380"/>
                        </Array>
                    </mxGeometry>
                </mxCell>
                <mxCell id="H4ysMeufxN5Wx3_AUWGg-95" value="" style="endArrow=open;endFill=1;endSize=12;html=1;rounded=0;entryX=0;entryY=0.5;entryDx=0;entryDy=0;exitX=1;exitY=0.5;exitDx=0;exitDy=0;" parent="1" target="H4ysMeufxN5Wx3_AUWGg-13" edge="1" source="H4ysMeufxN5Wx3_AUWGg-17">
                    <mxGeometry width="160" relative="1" as="geometry">
                        <mxPoint x="80" y="760" as="sourcePoint"/>
                        <mxPoint x="80" y="710" as="targetPoint"/>
                    </mxGeometry>
                </mxCell>
                <mxCell id="IAZbV3Lf_ktGm2C-iPFt-1" value="" style="endArrow=open;endFill=1;endSize=12;html=1;rounded=0;exitX=0.15;exitY=-0.007;exitDx=0;exitDy=0;exitPerimeter=0;" parent="1" source="H4ysMeufxN5Wx3_AUWGg-43" edge="1">
                    <mxGeometry width="160" relative="1" as="geometry">
                        <mxPoint x="40" y="-130" as="sourcePoint"/>
                        <mxPoint x="760" y="-48" as="targetPoint"/>
                        <Array as="points">
                            <mxPoint x="64" y="-140"/>
                            <mxPoint x="760" y="-138"/>
                        </Array>
                    </mxGeometry>
                </mxCell>
            </root>
        </mxGraphModel>
    </diagram>
</mxfile>